<svg xmlns="http://www.w3.org/2000/svg" viewBox="0 0 1180 610" width="100%" height="100%">
  <defs>
    <!-- Background Grid Pattern -->
    <pattern id="grid-pattern" width="30" height="30" patternUnits="userSpaceOnUse">
      <path d="M 30 0 L 0 0 0 30" fill="none" stroke="rgba(15, 23, 42, 0.02)" stroke-width="1" />
    </pattern>

    <!-- Background Radial Glows (Softer for Light Mode) -->
    <radialGradient id="glow-purple" cx="20%" cy="30%" r="45%">
      <stop offset="0%" stop-color="#3B82F6" stop-opacity="0.10" />
      <stop offset="100%" stop-color="#FFFFFF" stop-opacity="0" />
    </radialGradient>
    <radialGradient id="glow-blue" cx="80%" cy="70%" r="50%">
      <stop offset="0%" stop-color="#06B6D4" stop-opacity="0.08" />
      <stop offset="100%" stop-color="#FFFFFF" stop-opacity="0" />
    </radialGradient>
    <radialGradient id="glow-emerald" cx="50%" cy="50%" r="40%">
      <stop offset="0%" stop-color="#10B981" stop-opacity="0.06" />
      <stop offset="100%" stop-color="#FFFFFF" stop-opacity="0" />
    </radialGradient>

    <!-- Glass Reflection Gradient -->
    <linearGradient id="glass-reflection" x1="0%" y1="0%" x2="100%" y2="100%">
      <stop offset="0%" stop-color="rgba(15, 23, 42, 0.02)" />
      <stop offset="25%" stop-color="rgba(255, 255, 255, 0.0)" />
      <stop offset="100%" stop-color="rgba(255, 255, 255, 0.0)" />
    </linearGradient>

    <!-- Shifting Border Gradient for Light Mode -->
    <linearGradient id="border-shimmer" x1="0%" y1="0%" x2="100%" y2="100%">
      <stop offset="0%" stop-color="rgba(15,23,42,0.06)" />
      <stop offset="30%" stop-color="rgba(37,99,235,0.18)">
        <animate attributeName="offset" values="0;1;0" dur="7s" repeatCount="indefinite" />
      </stop>
      <stop offset="70%" stop-color="rgba(6,182,212,0.18)">
        <animate attributeName="offset" values="0.3;1.3;0.3" dur="7s" repeatCount="indefinite" />
      </stop>
      <stop offset="100%" stop-color="rgba(15,23,42,0.06)" />
    </linearGradient>

    <!-- Animated ASCII Gradient (Blue to Cyan) -->
    <linearGradient id="ascii-grad" x1="0%" y1="0%" x2="100%" y2="100%">
      <stop offset="0%" stop-color="#2563EB">
        <animate attributeName="stop-color" values="#2563EB;#06B6D4;#2563EB" dur="10s" repeatCount="indefinite" />
      </stop>
      <stop offset="50%" stop-color="#3B82F6">
        <animate attributeName="stop-color" values="#3B82F6;#10B981;#3B82F6" dur="10s" repeatCount="indefinite" />
      </stop>
      <stop offset="100%" stop-color="#06B6D4">
        <animate attributeName="stop-color" values="#06B6D4;#2563EB;#06B6D4" dur="10s" repeatCount="indefinite" />
      </stop>
    </linearGradient>

    <!-- Shifting Text Accent Gradient for Light Mode -->
    <linearGradient id="text-accent" x1="0%" y1="0%" x2="100%" y2="0%">
      <stop offset="0%" stop-color="#2563EB" />
      <stop offset="50%" stop-color="#06B6D4" />
      <stop offset="100%" stop-color="#10B981" />
    </linearGradient>

    <!-- Noise Filter -->
    <filter id="noise-filter">
      <feTurbulence type="fractalNoise" baseFrequency="0.80" numOctaves="4" stitchTiles="stitch" />
      <feColorMatrix type="matrix" values="0 0 0 0 0   0 0 0 0 0   0 0 0 0 0  0 0 0 0.008 0" />
    </filter>

    <!-- Drop Shadow Filter for Light Mode -->
    <filter id="panel-shadow" x="-10%" y="-10%" width="120%" height="120%">
      <feDropShadow dx="0" dy="12" stdDeviation="18" flood-color="#0F172A" flood-opacity="0.08" />
    </filter>

    <!-- Typewriter Clip Paths (Using precise text widths) -->
    <!-- Title 1: Frontend Engineer -->
    <clipPath id="clip-t1">
      <rect x="500" y="145" height="35" width="0">
        <animate attributeName="width" values="0;195;195;0;0;0" keyTimes="0;0.053;0.147;0.187;0.2;1.0" dur="15s" repeatCount="indefinite" />
      </rect>
    </clipPath>
    <!-- Title 2: Full Stack Developer -->
    <clipPath id="clip-t2">
      <rect x="500" y="145" height="35" width="0">
        <animate attributeName="width" values="0;0;215;215;0;0;0" keyTimes="0;0.2;0.253;0.347;0.387;0.4;1.0" dur="15s" repeatCount="indefinite" />
      </rect>
    </clipPath>
    <!-- Title 3: Open Source Contributor -->
    <clipPath id="clip-t3">
      <rect x="500" y="145" height="35" width="0">
        <animate attributeName="width" values="0;0;255;255;0;0;0" keyTimes="0;0.4;0.453;0.547;0.587;0.6;1.0" dur="15s" repeatCount="indefinite" />
      </rect>
    </clipPath>
    <!-- Title 4: UI Engineer -->
    <clipPath id="clip-t4">
      <rect x="500" y="145" height="35" width="0">
        <animate attributeName="width" values="0;0;130;130;0;0;0" keyTimes="0;0.6;0.653;0.747;0.787;0.8;1.0" dur="15s" repeatCount="indefinite" />
      </rect>
    </clipPath>
    <!-- Title 5: AI Enthusiast -->
    <clipPath id="clip-t5">
      <rect x="500" y="145" height="35" width="0">
        <animate attributeName="width" values="0;0;145;145;0;0;0" keyTimes="0;0.8;0.853;0.947;0.987;0.99;1.0" dur="15s" repeatCount="indefinite" />
      </rect>
    </clipPath>

    <!-- Discrete Reveal ClipPath for ASCII (Line-by-line loading scan) -->
    <clipPath id="ascii-reveal-clip">
      <rect x="50" y="90" width="380" height="0">
        <animate attributeName="height" 
                 values="0;15;30;45;60;75;90;105;120;135;150;165;180;195;210;225;240;255;270;285;300;315;330;345;360;375;390;410;410" 
                 keyTimes="0;0.03;0.06;0.09;0.12;0.15;0.18;0.21;0.24;0.27;0.30;0.33;0.36;0.39;0.42;0.45;0.48;0.51;0.54;0.57;0.60;0.63;0.66;0.69;0.72;0.75;0.78;0.81;1.0" 
                 dur="4s" fill="freeze" />
      </rect>
    </clipPath>
  </defs>

  <style>
    /* CSS Variables */
    :root {
      --bg-color: #FFFFFF;
      --panel-bg: rgba(248, 250, 252, 0.8);
      --border-color: rgba(15, 23, 42, 0.08);
      --primary-text: #0F172A;
      --secondary-text: #475569;
      --accent-color: #2563EB;
      --glow-color: rgba(37, 99, 235, 0.15);
    }

    text {
      font-family: 'Outfit', 'Inter', -apple-system, sans-serif;
    }

    .bg-glow {
      transform-box: fill-box;
      transform-origin: center;
    }

    .shimmer-panel {
      stroke: url(#border-shimmer);
      stroke-width: 1.5;
    }

    /* ASCII Portrait Style */
    .ascii-text {
      font-family: 'Fira Code', 'Courier New', Courier, monospace;
      font-size: 8.8px;
      font-weight: 700;
      fill: url(#ascii-grad);
      line-height: 14px;
    }

    @keyframes lineReveal {
      to { opacity: 0.85; }
    }
    .ascii-line {
      opacity: 0;
      animation: lineReveal 0.4s forwards ease-out;
    }
    .line-1 { animation-delay: 0.00s; }
      .line-2 { animation-delay: 0.03s; }
      .line-3 { animation-delay: 0.06s; }
      .line-4 { animation-delay: 0.09s; }
      .line-5 { animation-delay: 0.12s; }
      .line-6 { animation-delay: 0.15s; }
      .line-7 { animation-delay: 0.18s; }
      .line-8 { animation-delay: 0.21s; }
      .line-9 { animation-delay: 0.24s; }
      .line-10 { animation-delay: 0.27s; }
      .line-11 { animation-delay: 0.30s; }
      .line-12 { animation-delay: 0.33s; }
      .line-13 { animation-delay: 0.36s; }
      .line-14 { animation-delay: 0.39s; }
      .line-15 { animation-delay: 0.42s; }
      .line-16 { animation-delay: 0.45s; }
      .line-17 { animation-delay: 0.48s; }
      .line-18 { animation-delay: 0.51s; }
      .line-19 { animation-delay: 0.54s; }
      .line-20 { animation-delay: 0.57s; }
      .line-21 { animation-delay: 0.60s; }
      .line-22 { animation-delay: 0.63s; }
      .line-23 { animation-delay: 0.66s; }
      .line-24 { animation-delay: 0.69s; }
      .line-25 { animation-delay: 0.72s; }
      .line-26 { animation-delay: 0.75s; }
      .line-27 { animation-delay: 0.78s; }

    /* Floating animation for left card */
    @keyframes float {
      0%, 100% { transform: translateY(0px); }
      50% { transform: translateY(-8px); }
    }
    .floating-container {
      animation: float 6s ease-in-out infinite;
    }

    /* Blinking Cursor style */
    @keyframes blink {
      0%, 100% { opacity: 1; }
      50% { opacity: 0; }
    }
    .typing-cursor {
      animation: blink 0.8s infinite;
    }

    /* Info Rows Fade & Slide */
    @keyframes fadeInUp {
      from {
        opacity: 0;
        transform: translateY(10px);
      }
      to {
        opacity: 1;
        transform: translateY(0);
      }
    }
    .info-row {
      opacity: 0;
      animation: fadeInUp 0.7s cubic-bezier(0.16, 1, 0.3, 1) forwards;
      transform-box: fill-box;
    }

    /* Skills interactive pills styling */
    .skill-pill {
      transition: transform 0.2s cubic-bezier(0.34, 1.56, 0.64, 1);
      transform-box: fill-box;
      transform-origin: center;
      cursor: pointer;
    }
    .pill-rect {
      fill: rgba(15, 23, 42, 0.01);
      stroke: rgba(15, 23, 42, 0.08);
      stroke-width: 1;
      transition: stroke 0.2s, fill 0.2s;
    }
    .pill-text {
      font-size: 11.5px;
      font-weight: 500;
      fill: #475569;
      transition: fill 0.2s;
    }
    .pill-dot {
      transition: filter 0.2s, fill 0.2s;
    }
    .skill-pill:hover {
      transform: scale(1.08);
      filter: drop-shadow(0 0 6px rgba(37, 99, 235, 0.15));
    }
    .skill-pill:hover .pill-rect {
      stroke: #2563EB;
      fill: rgba(37, 99, 235, 0.05);
    }
    .skill-pill:hover .pill-text {
      fill: #0F172A;
    }
    .skill-pill:hover .pill-dot {
      filter: drop-shadow(0 0 4px #2563EB);
    }

    /* Social Icons Styling */
    .social-icon circle {
      transition: fill 0.2s, stroke 0.2s, filter 0.2s;
    }
    .social-icon path {
      transition: fill 0.2s;
    }
    .social-icon:hover circle {
      fill: rgba(37, 99, 235, 0.08);
      stroke: #2563EB;
      filter: drop-shadow(0 0 8px rgba(37, 99, 235, 0.25));
    }
    .social-icon:hover path {
      fill: #2563EB;
    }
  </style>

  <!-- Background Base -->
  <rect width="1180" height="610" rx="20" fill="#FFFFFF" stroke="rgba(15, 23, 42, 0.06)" stroke-width="2" />

  <!-- Grid Pattern Overlay -->
  <rect width="1180" height="610" rx="20" fill="url(#grid-pattern)" />

  <!-- Animated Glowing Radials -->
  <circle cx="200" cy="150" r="300" fill="url(#glow-purple)" class="bg-glow">
    <animate attributeName="cx" values="200;240;165;200" dur="16s" repeatCount="indefinite" />
    <animate attributeName="cy" values="150;185;115;150" dur="16s" repeatCount="indefinite" />
  </circle>
  <circle cx="920" cy="420" r="350" fill="url(#glow-blue)" class="bg-glow">
    <animate attributeName="cx" values="920;880;960;920" dur="20s" repeatCount="indefinite" />
    <animate attributeName="cy" values="420;460;380;420" dur="20s" repeatCount="indefinite" />
  </circle>
  <circle cx="580" cy="220" r="250" fill="url(#glow-emerald)" class="bg-glow">
    <animate attributeName="cx" values="580;605;555;580" dur="14s" repeatCount="indefinite" />
    <animate attributeName="cy" values="220;195;245;220" dur="14s" repeatCount="indefinite" />
  </circle>

  <!-- Noise Overlay for Premium Texture -->
  <rect width="1180" height="610" rx="20" filter="url(#noise-filter)" pointer-events="none" />

  <!-- Scanline Sweep Animation -->
  <rect x="0" y="0" width="1180" height="2.5" fill="rgba(15, 23, 42, 0.02)" pointer-events="none">
    <animate attributeName="y" values="-10;620" dur="12s" repeatCount="indefinite" />
  </rect>

  <!-- Tiny Floating Particles -->
  <g fill="rgba(15, 23, 42, 0.06)">
    <circle cx="150" cy="460" r="1.5">
      <animate attributeName="cy" values="460;410;460" dur="8s" repeatCount="indefinite" />
      <animate attributeName="opacity" values="0.2;0.8;0.2" dur="8s" repeatCount="indefinite" />
    </circle>
    <circle cx="390" cy="110" r="1">
      <animate attributeName="cy" values="110;60;110" dur="10s" repeatCount="indefinite" />
      <animate attributeName="opacity" values="0.1;0.7;0.1" dur="10s" repeatCount="indefinite" />
    </circle>
    <circle cx="850" cy="240" r="2">
      <animate attributeName="cy" values="240;190;240" dur="9s" repeatCount="indefinite" />
      <animate attributeName="opacity" values="0.3;0.95;0.3" dur="9s" repeatCount="indefinite" />
    </circle>
  </g>

  <!-- Left Section: ASCII Portrait Terminal -->
  <g class="floating-container">
    <!-- Panel Glassmorphism Background with shadow -->
    <rect x="40" y="40" width="400" height="530" rx="16" fill="rgba(248, 250, 252, 0.8)" class="shimmer-panel" filter="url(#panel-shadow)" />
    
    <!-- Diagonal reflection overlay -->
    <rect x="40" y="40" width="400" height="530" rx="16" fill="url(#glass-reflection)" pointer-events="none" />

    <!-- Terminal Header Dots -->
    <circle cx="65" cy="65" r="5" fill="#EF4444" opacity="0.8" />
    <circle cx="80" cy="65" r="5" fill="#F59E0B" opacity="0.8" />
    <circle cx="95" cy="65" r="5" fill="#10B981" opacity="0.8" />
    <text x="120" y="69" fill="#94A3B8" font-size="11" font-weight="700" letter-spacing="1">PORTRAIT_SCAN.EXE</text>

    <!-- Grid Screen Overlay Lines -->
    <rect x="55" y="90" width="370" height="410" fill="rgba(255, 255, 255, 0.45)" rx="8" />

    <!-- Scanning Horizontal Glowing Bar (Line-by-line helper) -->
    <rect x="55" y="90" width="370" height="2" fill="#2563EB" opacity="0.8" clip-path="url(#ascii-reveal-clip)">
      <animate attributeName="y" values="90;500" dur="4s" fill="freeze" />
    </rect>

    <!-- ASCII Art Portrait (Reveals line-by-line using clip path) -->
    <g clip-path="url(#ascii-reveal-clip)">
      <text x="110" y="94" class="ascii-text">
        <tspan x="110" dy="14" class="ascii-line line-1">%%%%%%%#*+++***********###%%%%@%@@@@@@@@</tspan>
    <tspan x="110" dy="14" class="ascii-line line-2">%%#####*+++++**********####%%%%%%%%@@@@@</tspan>
    <tspan x="110" dy="14" class="ascii-line line-3">%%#####*++++*******++**####%%%%%%%%@@@@@</tspan>
    <tspan x="110" dy="14" class="ascii-line line-4">%#####**++++****####**+****%%%%%%%%%@@@@</tspan>
    <tspan x="110" dy="14" class="ascii-line line-5">####***++*+****#%@@%%%*+**+#%%%%%%%%%@@@</tspan>
    <tspan x="110" dy="14" class="ascii-line line-6">###**++++++++*++%%%%%@*++++#%%%##%%%@@@@</tspan>
    <tspan x="110" dy="14" class="ascii-line line-7">****+++++++++*++%%###%#++++*###%%%%%@@@@</tspan>
    <tspan x="110" dy="14" class="ascii-line line-8">#****+++=======*%%*++#%%#**######%%%%%%%</tspan>
    <tspan x="110" dy="14" class="ascii-line line-9">##***++++====-++*%%###%%@@%#######%%%%%@</tspan>
    <tspan x="110" dy="14" class="ascii-line line-10">**++=======-==**#%%####%%%+=+%##*###%%%%</tspan>
    <tspan x="110" dy="14" class="ascii-line line-11">**+=======-=+##%%%@%*=*%%#==-*%###%%%%%%</tspan>
    <tspan x="110" dy="14" class="ascii-line line-12">#%#**+++++++*#%##@@#==#%%%+--=%%%%%%%%%@</tspan>
    <tspan x="110" dy="14" class="ascii-line line-13">%#########***####%%#=*#%%%*===*%@%%%%%%@</tspan>
    <tspan x="110" dy="14" class="ascii-line line-14">%%#######*###%#+==+++*****+==+*%@@@%####</tspan>
    <tspan x="110" dy="14" class="ascii-line line-15">%%%%%####*#*#%%%*+++==++**##*##%@%%*+*+*</tspan>
    <tspan x="110" dy="14" class="ascii-line line-16">###########*#%%%*++*#%%%%%%%%%%@%*+=*#*#</tspan>
    <tspan x="110" dy="14" class="ascii-line line-17">%########**###@#*+*##%%%%%@%@@%*==-+%%%%</tspan>
    <tspan x="110" dy="14" class="ascii-line line-18">%%#######%%%%%@%*+*#%#%@%%@%%#+=--+%#%%%</tspan>
    <tspan x="110" dy="14" class="ascii-line line-19">##*#*#####*#%@@#***#%%@@%%#*+=+**#%%%%%%</tspan>
    <tspan x="110" dy="14" class="ascii-line line-20">########**=#%%%***##%@@%%#***+*%%%%%%%%@</tspan>
    <tspan x="110" dy="14" class="ascii-line line-21">%######*++*%%%#####%%@%%%#****#%%%%%%%%@</tspan>
    <tspan x="110" dy="14" class="ascii-line line-22">###****+*#%%###%#%%%%@%%%#**#%%%%%%%%%%@</tspan>
    <tspan x="110" dy="14" class="ascii-line line-23">###*+***##****#+*%@@%@%%##**%%#%%%%%%%@@</tspan>
    <tspan x="110" dy="14" class="ascii-line line-24">##############*+#%@@@@%%%###%%%%%%%%#%@@</tspan>
    <tspan x="110" dy="14" class="ascii-line line-25">%%%%%%%%%%%##*+*%%%###**#%%%%%%%%%%#%%@@</tspan>
    <tspan x="110" dy="14" class="ascii-line line-26">%%%%%%%%%%%##*##%#***++**######%%%%%%%%%</tspan>
    <tspan x="110" dy="14" class="ascii-line line-27">%%%%%%%%#############*###**#########%%%%</tspan>
      </text>
    </g>

    <!-- Blinking cursor at the status line -->
    <g transform="translate(65, 525)">
      <text x="0" y="0" fill="#94A3B8" font-size="11" font-family="Courier, monospace" font-weight="bold">> STATUS: SECURING_PORTRAIT</text>
      <!-- Blinking terminal underscore -->
      <rect x="180" y="-9" width="6" height="10" fill="#2563EB" class="typing-cursor" />
    </g>
  </g>

  <!-- Right Section: Interactive Terminal -->
  <g>
    <!-- Panel Glassmorphism Background with shadow -->
    <rect x="470" y="40" width="670" height="530" rx="16" fill="rgba(248, 250, 252, 0.8)" class="shimmer-panel" filter="url(#panel-shadow)" />

    <!-- Diagonal reflection overlay -->
    <rect x="470" y="40" width="670" height="530" rx="16" fill="url(#glass-reflection)" pointer-events="none" />

    <!-- Terminal Header Dots -->
    <circle cx="495" cy="65" r="5" fill="#EF4444" opacity="0.8" />
    <circle cx="510" cy="65" r="5" fill="#F59E0B" opacity="0.8" />
    <circle cx="525" cy="65" r="5" fill="#10B981" opacity="0.8" />
    <text x="550" y="69" fill="#94A3B8" font-size="11" font-weight="700" letter-spacing="1">gempur@anarki-space:~</text>
    <rect x="1090" y="58" width="22" height="13" rx="3" fill="none" stroke="rgba(15,23,42,0.1)" stroke-width="1" />
    <text x="1097" y="68" fill="#94A3B8" font-size="9" font-weight="bold">2D</text>

    <!-- GREETING -->
    <text x="500" y="112" fill="#475569" font-size="13" font-weight="800" letter-spacing="1.5">INTRO</text>
    <text x="500" y="140" fill="#0F172A" font-size="22" font-weight="300">Hi 👋 I'm <tspan font-weight="800" fill="#0F172A">Gempur</tspan></text>

    <!-- TYPEWRITER MULTIPLE TITLES -->
    <g>
      <!-- Title 1: Frontend Engineer -->
      <text x="500" y="170" fill="url(#text-accent)" font-size="20" font-weight="700" clip-path="url(#clip-t1)">Frontend Engineer</text>
      <!-- Title 2: Full Stack Developer -->
      <text x="500" y="170" fill="url(#text-accent)" font-size="20" font-weight="700" clip-path="url(#clip-t2)">Full Stack Developer</text>
      <!-- Title 3: Open Source Contributor -->
      <text x="500" y="170" fill="url(#text-accent)" font-size="20" font-weight="700" clip-path="url(#clip-t3)">Open Source Contributor</text>
      <!-- Title 4: UI Engineer -->
      <text x="500" y="170" fill="url(#text-accent)" font-size="20" font-weight="700" clip-path="url(#clip-t4)">UI Engineer</text>
      <!-- Title 5: AI Enthusiast -->
      <text x="500" y="170" fill="url(#text-accent)" font-size="20" font-weight="700" clip-path="url(#clip-t5)">AI Enthusiast</text>

      <!-- Blinking Typing Cursor -->
      <rect y="152" width="2.5" height="20" fill="#2563EB" class="typing-cursor">
        <animate attributeName="x" values="500;695;695;500;500;715;715;500;500;755;755;500;500;630;630;500;500;645;645;500;500" 
                 keyTimes="0;0.053;0.147;0.187;0.2;0.253;0.347;0.387;0.4;0.453;0.547;0.587;0.6;0.653;0.747;0.787;0.8;0.853;0.947;0.987;1.0" 
                 dur="15s" repeatCount="indefinite" />
      </rect>
    </g>

    <!-- PERSONAL INFORMATION (Sequential Reveal with Vector Icons) -->
    <!-- Row 1: Location -->
    <g class="info-row" style="animation-delay: 0.5s;">
      <!-- Vector Pin Icon -->
      <g transform="translate(500, 203)">
        <path d="M8 2a5 5 0 00-5 5c0 3.25 5 8 5 8s5-4.75 5-8a5 5 0 00-5-5zm0 6.5a1.5 1.5 0 110-3 1.5 1.5 0 010 3z" fill="#2563EB" transform="scale(1.2)" />
      </g>
      <text x="525" y="215" fill="#475569" font-size="14" font-weight="600">Location</text>
      <text x="610" y="215" fill="#0F172A" font-size="14">Indonesia</text>
    </g>
    <!-- Row 2: Education -->
    <g class="info-row" style="animation-delay: 0.7s;">
      <!-- Vector Grad Cap Icon -->
      <g transform="translate(500, 233)">
        <path d="M10 2L1 6.5l9 4.5 9-4.5L10 2z" fill="#2563EB" transform="scale(1)" />
        <path d="M4 8.5v4c0 1.5 2 2.5 6 2.5s6-1 6-2.5v-4" fill="none" stroke="#2563EB" stroke-width="1.5" stroke-linecap="round" stroke-linejoin="round" transform="scale(1)" />
      </g>
      <text x="525" y="245" fill="#475569" font-size="14" font-weight="600">Education</text>
      <text x="610" y="245" fill="#475569" font-size="14"><tspan fill="#0F172A">Self-Taught</tspan> / CS Student</text>
    </g>
    <!-- Row 3: Focus -->
    <g class="info-row" style="animation-delay: 0.9s;">
      <!-- Vector lightning Icon -->
      <g transform="translate(500, 263)">
        <path d="M9 1L1 11h7l-1 7 8-10H8.5l1.5-7z" fill="#2563EB" transform="scale(1.1)" />
      </g>
      <text x="525" y="275" fill="#475569" font-size="14" font-weight="600">Focus</text>
      <text x="610" y="275" fill="#0F172A" font-size="14">Full Stack &amp; Cyber Security</text>
    </g>
    <!-- Row 4: Portfolio -->
    <g class="info-row" style="animation-delay: 1.1s;">
      <!-- Vector Globe Icon -->
      <g transform="translate(500, 293)">
        <path d="M8 0a8 8 0 100 16A8 8 0 008 0zm5.66 4.4h-2.5a11.8 11.8 0 00-.78-2.07A5.99 5.99 0 0113.66 4.4z M8 1.4c.45.74.8 1.57 1.01 2.45c0 .01.01.01.01.02H6.98A11.08 11.08 0 018 1.4z" fill="#2563EB" transform="scale(1.2)" />
      </g>
      <text x="525" y="305" fill="#475569" font-size="14" font-weight="600">Portfolio</text>
      <a href="https://gempurbudianarki.space/" target="_blank">
        <text x="610" y="305" fill="#2563EB" font-size="14" font-weight="700" text-decoration="underline">gempurbudianarki.space</text>
      </a>
    </g>
    <!-- Row 5: Email -->
    <g class="info-row" style="animation-delay: 1.3s;">
      <!-- Vector Envelope Icon -->
      <g transform="translate(500, 323)">
        <path d="M2.5 3h11c.8 0 1.5.7 1.5 1.5v7c0 .8-.7 1.5-1.5 1.5h-11A1.5 1.5 0 011 11.5v-7C1 3.7 1.7 3 2.5 3zm0 2.5l5.5 3.5 5.5-3.5v-1l-5.5 3.5L2.5 4.5v1z" fill="#2563EB" transform="scale(1.2)" />
      </g>
      <text x="525" y="335" fill="#475569" font-size="14" font-weight="600">Email</text>
      <a href="mailto:gempurbudianarki@gmail.com">
        <text x="610" y="335" fill="#2563EB" font-size="14" font-weight="700" text-decoration="underline">gempurbudianarki@gmail.com</text>
      </a>
    </g>

    <!-- SKILLS SECTION -->
    <g class="info-row" style="animation-delay: 1.5s;">
      <text x="500" y="372" fill="#94A3B8" font-size="11" font-weight="800" letter-spacing="1.5">STACK &amp; SKILLS</text>
      <!-- Row 1 Skills Pills -->
      
      <g class="skill-pill" transform="translate(500, 385)">
        <rect x="0" y="0" width="74" height="28" rx="14" class="pill-rect" />
        <circle cx="14" cy="14" r="3" fill="#2563EB" class="pill-dot" />
        <text x="25" y="18" class="pill-text">React</text>
      </g>

      <g class="skill-pill" transform="translate(584, 385)">
        <rect x="0" y="0" width="88" height="28" rx="14" class="pill-rect" />
        <circle cx="14" cy="14" r="3" fill="#2563EB" class="pill-dot" />
        <text x="25" y="18" class="pill-text">Next.js</text>
      </g>

      <g class="skill-pill" transform="translate(682, 385)">
        <rect x="0" y="0" width="88" height="28" rx="14" class="pill-rect" />
        <circle cx="14" cy="14" r="3" fill="#2563EB" class="pill-dot" />
        <text x="25" y="18" class="pill-text">Node.js</text>
      </g>

      <g class="skill-pill" transform="translate(780, 385)">
        <rect x="0" y="0" width="110" height="28" rx="14" class="pill-rect" />
        <circle cx="14" cy="14" r="3" fill="#2563EB" class="pill-dot" />
        <text x="25" y="18" class="pill-text">TypeScript</text>
      </g>

      <g class="skill-pill" transform="translate(900, 385)">
        <rect x="0" y="0" width="124" height="28" rx="14" class="pill-rect" />
        <circle cx="14" cy="14" r="3" fill="#2563EB" class="pill-dot" />
        <text x="25" y="18" class="pill-text">Tailwind CSS</text>
      </g>

      <g class="skill-pill" transform="translate(1034, 385)">
        <rect x="0" y="0" width="81" height="28" rx="14" class="pill-rect" />
        <circle cx="14" cy="14" r="3" fill="#2563EB" class="pill-dot" />
        <text x="25" y="18" class="pill-text">Python</text>
      </g>
      <!-- Row 2 Skills Pills -->
      
      <g class="skill-pill" transform="translate(500, 425)">
        <rect x="0" y="0" width="81" height="28" rx="14" class="pill-rect" />
        <circle cx="14" cy="14" r="3" fill="#10B981" class="pill-dot" />
        <text x="25" y="18" class="pill-text">Docker</text>
      </g>

      <g class="skill-pill" transform="translate(591, 425)">
        <rect x="0" y="0" width="110" height="28" rx="14" class="pill-rect" />
        <circle cx="14" cy="14" r="3" fill="#10B981" class="pill-dot" />
        <text x="25" y="18" class="pill-text">PostgreSQL</text>
      </g>

      <g class="skill-pill" transform="translate(711, 425)">
        <rect x="0" y="0" width="59" height="28" rx="14" class="pill-rect" />
        <circle cx="14" cy="14" r="3" fill="#10B981" class="pill-dot" />
        <text x="25" y="18" class="pill-text">AWS</text>
      </g>

      <g class="skill-pill" transform="translate(780, 425)">
        <rect x="0" y="0" width="59" height="28" rx="14" class="pill-rect" />
        <circle cx="14" cy="14" r="3" fill="#10B981" class="pill-dot" />
        <text x="25" y="18" class="pill-text">Git</text>
      </g>

      <g class="skill-pill" transform="translate(849, 425)">
        <rect x="0" y="0" width="74" height="28" rx="14" class="pill-rect" />
        <circle cx="14" cy="14" r="3" fill="#10B981" class="pill-dot" />
        <text x="25" y="18" class="pill-text">Figma</text>
      </g>
    </g>

    <!-- SOCIAL ICONS SECTION -->
    <g class="info-row" style="animation-delay: 1.8s;">
      <!-- GitHub Link -->
      <a href="https://github.com/gempurbudianarki" target="_blank">
        <g class="social-icon" transform="translate(500, 475)">
          <circle cx="18" cy="18" r="18" fill="rgba(15,23,42,0.02)" stroke="rgba(15,23,42,0.08)" stroke-width="1.2" />
          <path d="M18 6C11.37 6 6 11.37 6 18c0 5.3 3.438 9.8 8.205 11.385.6.11.82-.26.82-.577v-2.234c-3.338.724-4.042-1.61-4.042-1.61C10.43 23.58 9.65 23.21 9.65 23.21c-1.09-.745.08-.73.08-.73 1.205.085 1.838 1.24 1.838 1.24.87 1.488 2.28 1.058 2.835.81.1-.645.355-1.09.64-1.34-2.665-.3-5.466-1.332-5.466-5.93 0-1.31.465-2.38 1.235-3.22-.125-.303-.535-1.524.115-3.176 0 0 1.005-.322 3.3 1.23.96-.267 1.98-.399 3-.405 1.02.006 2.04.138 3 .405 2.28-1.552 3.285-1.23 3.285-1.23.655 1.652.245 2.873.12 3.176.765.84 1.23 1.91 1.23 3.22 0 4.61-2.805 5.625-5.475 5.92.43.372.82 1.102.82 2.222v3.293c0 .32.22.694.825.576C26.565 27.795 30 23.3 30 18c0-6.63-5.37-12-12-12z" fill="#475569" transform="translate(0, -2) scale(1)"/>
        </g>
      </a>

      <!-- LinkedIn Link -->
      <a href="https://www.linkedin.com/in/gempur-budi-anarki-b8977b369" target="_blank">
        <g class="social-icon" transform="translate(545, 475)">
          <circle cx="18" cy="18" r="18" fill="rgba(15,23,42,0.02)" stroke="rgba(15,23,42,0.08)" stroke-width="1.2" />
          <path d="M26 8H10a2 2 0 00-2 2v16a2 2 0 002 2h16a2 2 0 002-2V10a2 2 0 00-2-2zM14.5 24h-3V14h3v10zM13 12.5a1.5 1.5 0 111.5-1.5 1.5 1.5 0 01-1.5 1.5zM25 24h-3v-5.5a1.5 1.5 0 00-3 0V24h-3V14h3v1.5a4.5 4.5 0 014-1.5c2.5 0 5 1.8 5 5.5V24z" fill="#475569" transform="translate(0, -2) scale(1)"/>
        </g>
      </a>

      <!-- Portfolio Link -->
      <a href="https://gempurbudianarki.space/" target="_blank">
        <g class="social-icon" transform="translate(590, 475)">
          <circle cx="18" cy="18" r="18" fill="rgba(15,23,42,0.02)" stroke="rgba(15,23,42,0.08)" stroke-width="1.2" />
          <path d="M18 6C11.37 6 6 11.37 6 18s5.37 12 12 12 12-5.37 12-12S24.63 6 18 6zm5.29 6.6H20.1a10.6 10.6 0 00-.73-1.93 6.01 6.01 0 013.92 1.93zM18 7.37c.43.69.75 1.47.95 2.3H17.05c.2-.83.52-1.61.95-2.3zm-2.75.36c-.43.69-.75 1.47-.95 2.27h-3.23a6.01 6.01 0 014.18-2.27zM6.75 11.3h2.46c-.12.87-.12 1.83 0 2.7H6.75a6.02 6.02 0 010-2.7zm3.17 0h2.75c-.15 1.07-.15 2.27 0 3.34H9.92A11.3 11.3 0 019.75 13c0-.57.04-1.13.17-1.7zm4.33 0h3.5c-.15 1.07-.15 2.27 0 3.34h-3.5c.15-1.07.15-2.27 0-3.34zm4.25 0h2.75c.13.57.17 1.13.17 1.7 0 .57-.04 1.13-.17 1.7h-2.75c.15-1.07.15-2.27 0-3.34zm3.58 3.3h2.46c.07.43.09.87.09 1.3 0 .43-.02.87-.09 1.3h-2.46a11.3 11.3 0 000-2.6zm-1.08 4.6h3.23a6.01 6.01 0 01-4.18 2.27c.43-.69.75-1.47.95-2.27zm-4.25 1.93c-.43-.69-.75-1.47-.95-2.3H18.95c-.2.83-.52 1.61-.95 2.3zm-2.75-.36a10.6 10.6 0 00.73 1.93 6.01 6.01 0 01-3.92-1.93h3.19z" fill="#475569" transform="translate(0, -2) scale(1)"/>
        </g>
      </a>
    </g>
  </g>
</svg>